<?xml version="1.0" encoding="UTF-8"?><svg id="Layer_1" xmlns="http://www.w3.org/2000/svg" viewBox="0 0 230 234"><defs><style>.cls-1{fill:#575964;}.cls-2{fill:#878aa1;}</style></defs><path d="M144.54,23.81c.01.23.02.48,0,.71l-.71,1.42c-.05.23.05.49,0,.71-1.91,2.42-2.68,6.2-3.55,9.22-.06.22.06.49,0,.71-1.5,1.21-1.66,3.26-2.13,4.97-.06.22.06.49,0,.71-1.71,1.74-2.14,4.75-2.84,7.1-.06.22.07.49,0,.71-2.35,3.8-3.65,8.53-4.97,12.77-.07.22.06.49,0,.71-1.71,1.74-2.15,4.75-2.84,7.1-.06.22.06.49,0,.71-1.5,1.21-1.66,3.26-2.13,4.97-.06.22.06.49,0,.71-2.91,5.76-5.26,12.26-7.1,18.45-.06.22.06.49,0,.71-1.5,1.21-1.64,3.27-2.13,4.97-.06.22.07.49,0,.71-2.61,4.28-4.1,9.45-5.68,14.19-.07.21.07.5,0,.71-1.92,2.35-2.62,5.7-3.55,8.51-.07.21.07.5,0,.71-2.41,3.57-3.54,8.06-4.97,12.06-.07.21.08.5,0,.71l-1.42,2.84c-.08.21.08.5,0,.71l-1.42,2.84c-.08.21.08.5,0,.71l-1.42,2.84c-.08.21.08.5,0,.71l-1.42,2.84c-.08.21.08.5,0,.71l-1.42,2.84c-.08.2.08.51,0,.71l-1.42,2.84c-.08.2.08.51,0,.71-2.59,3.78-3.94,8.55-5.68,12.77-.08.2.08.51,0,.71-1.77,3.11-4.24,6.73-5.68,9.93-.09.2.09.51,0,.71-2.96,6.02-6.11,11.97-9.64,17.68-2.45,3.98-9.83,15.85-12.76,18.46-2.06,1.83-6.88,3.61-7.41-.35-.19-1.39.54-2.6.72-3.86.03-.23-.04-.48,0-.71,1.53-1.81,1.64-4.21,2.13-6.39.05-.22-.05-.48,0-.71,1.53-1.81,1.64-4.21,2.13-6.39.05-.22-.05-.48,0-.71,3.56-3.97,1.11-10.42,2.28-14.4s11.93-4.44,6.95-11.14c0-.24,0-.47,0-.71.09-5.93,1.76-8.04,3.55-13.48.07-.21-.07-.5,0-.71,3.01-5.35,4.91-11.32,7.1-17.03.08-.21-.08-.5,0-.71,2.67-4.31,4.61-9.45,6.39-14.19.08-.21-.08-.5,0-.71,1.66-1.52,2.1-3.69,2.84-5.68.08-.21-.08-.5,0-.71,3.02-4.56,4.99-9.88,7.1-14.9.08-.2-.08-.51,0-.71,2.42-2.87,3.4-6.64,4.97-9.93.09-.19-.09-.52,0-.71,9.55-20.08,24.7-56,38.02-72.32,3.35-4.1,7.77-7.09,8.1.65ZM62.23,205.46c-.29.74-1.92,1.45-1.41,2.84,1.05-.24,1.56-1.34,2.12-2.13,1.44-2.02,13.74-21.82,12.78-22.7-4.9-1.15-2.68-.11-4.93,1.8-1.26,1.07-4.86,2.82-5.37,3.86-.88,1.8-.15,5.59-.52,7.99-.26,1.66-1.97,6.54-2.67,8.33Z"/><path class="cls-2" d="M62.23,205.46c.7-1.79,2.41-6.68,2.67-8.33.37-2.41-.36-6.19.52-7.99.51-1.05,4.1-2.79,5.37-3.86,2.25-1.91.03-2.95,4.93-1.8.96.88-11.34,20.68-12.78,22.7l-.71-.71Z"/><path class="cls-1" d="M62.94,206.17c-.56.79-1.07,1.89-2.12,2.13-.5-1.39,1.12-2.1,1.41-2.84l.71.71Z"/></svg>