<?xml version="1.0" encoding="UTF-8"?><svg id="Layer_1" xmlns="http://www.w3.org/2000/svg" viewBox="0 0 236 284"><defs><style>.cls-1{fill:#010101;}.cls-2{fill:#6e76b1;}.cls-3{fill:#888ba3;}</style></defs><path d="M96.23,69.63c.99-.05,2.04-.05,3.03,0,.5.02,1.03-.06,1.52,0,5.39,2.12,10.64,5.07,11.39,11.38,1.19.49,1.91-.68,2.27-.76.24-.06.52.06.76,0,1.82-.49,4.03-.7,5.31-2.28.23-.07.53.07.76,0,3.23-.93,7.28-1.75,9.86-3.79.23-.07.52.06.76,0,1.99-.55,5.35-2.48,7.02-2.13,5.78,1.21,19.15,20.62,22.41,26.17,1.93,3.29,3.06,7.09,5.46,10.09.09.22-.08.54,0,.76,1.83,4.76,3.02,9.84,5.31,14.41.06.24-.06.52,0,.76l.76,2.28c.05.24-.05.52,0,.76l.76,3.03c.04.25-.04.51,0,.76l.76,3.03c.04.5-.02,1.01,0,1.52.08,1.68-.61,4.25.76,5.31.03,2.77.03,5.57,0,8.34-1.34.85-.65,3.12-.76,4.55-.02.25.04.51,0,.76-1.73,2.97-2.11,6.33-5.31,8.34-.2.1-.55-.1-.76,0l-1.52.76c-.23.08-.53-.08-.76,0l-1.52.76c-.23.07-.53-.07-.76,0-1.82.53-4.02.66-5.31,2.28-.23.07-.53-.07-.76,0-11.98,3.65-26.27,9.81-37.91,14.82-1.12.48-2.31.81-3.06,1.87-.22.08-.53-.08-.76,0-2.79.99-6.11,1.74-8.34,3.79-.22.08-.53-.08-.76,0-4.03,1.44-8.65,2.77-12.14,5.31-.22.09-.54-.09-.76,0l-3.03,1.52c-.22.09-.55-.09-.76,0-2.81,1.21-5.17,2.53-7.59,4.55-.71.11-1.55-.1-2.28,0-4.43-1.88-4.86-1.5-6.07,2.28-.07.23.08.53,0,.76-2.21,2.46-3.03,5.96-3.79,9.1-.06.24.05.52,0,.76-1.59,1.37-1.26,3.51-1.52,5.31-.04.25.04.51,0,.76-1.5,3.53-1.63,6.23-5.31,8.34-.44.06-1.08.06-1.52,0-4.13-1.27-5.73-9.06-9.1-3.79-.22.06-.5-.05-.76,0-3.68.31-4.56-2.59-6.83-4.55-.09-.21.08-.53,0-.76-1.09-2.93-1.26-6.5-3.03-9.1-.08-.24.11-.7,0-.76-.05-1.17-2.22-1.17-2.28,0-.49-.05-1.06.08-1.52,0-2.4-1.68-3.58-2.88-3.03-6.07.05-.25-.06-.53,0-.76,5.16-9.94,12.12-18.77,19.69-26.97.8-.86,3.76-2.63,3.82-3.01.04-.25-.73-.32-.75-.37-.07-.21.05-.5,0-.76v-1.52c-.03-.25.03-.51,0-.76-.16-1.48-.05-2.9-1.52-3.79-.07-.23.07-.53,0-.76l-.76-1.52c-.06-.24.06-.52,0-.76l-.76-1.52c-.06-.24.06-.52,0-.76-.59-2.26-.59-4.93-2.28-6.83-.05-.24.05-.52,0-.76-.81-3.74-1.33-7.92-3.03-11.38-.05-.24.05-.52,0-.76l-.76-3.03c-.04-.25.04-.51,0-.76l-.76-3.03c-.03-.25.03-.51,0-.76-.04-1.22.47-3.15-.76-3.79-.04-.5.02-1.01,0-1.52-.06-1.67.59-4.26-.76-5.31-.01-1.01,0-2.02,0-3.03,0-1.26-.06-2.54,0-3.79.05-1-.1-2.04,0-3.03,1.62-3.14,1.43-6.21,5.31-7.59.25,0,.51,0,.76,0,.09,0,.48.92,1.65.64,1.87-.45,6.02-2.92,8.21-3.67,7.28-2,4.54-1.69,7.59-7.59,5.74-8.67,11.73-16.42,21.24-21.24.22-.07.51.06.76,0,.79-.19,2.16-.74,2.28-.76.49-.06,1.02.03,1.52,0ZM107.61,83.28c-8.04-18.03-26.57.32-31.1,11.39l31.1-11.39ZM90.92,187.97c11.25-4.65,22.79-9.37,34.16-14.01,14.1-5.76,28.49-10.85,42.46-16.9,6.45-28.7-9.43-59.82-30.14-78.98-8.08,1.36-15.56,5.8-23.65,7.55.66,16.73-8.14,39.98-19.06,52.63-2.06,2.38-6.59,4.65-5.93.2.35-2.31,8.37-13.74,10.14-17.23,5.06-9.99,9.69-22.09,9.46-33.39l-34.36,12.29c-4.36,6.71-4.36,2.77-8.42,2.9-.94.03-7.13,1.97-7.28,2.65,8.35,11.65,13.66,25.37,17.82,39.06,4.62,15.21,8.08,31.03,7.22,47.03.28.38,6.82-3.48,7.58-3.79ZM75.76,159.13c-4.71-14.82-8.91-35.45-18.34-48.02-3.29-4.39-5.86-6.77-6.7.63-1.1,9.7,5.72,44.67,10.46,53.26.45.81.74,1.84,1.94,1.66,2.18-.33,9.08-7.67,12.64-7.53Z"/><path class="cls-3" d="M90.92,187.97c-.76.31-7.3,4.17-7.58,3.79.86-16-2.6-31.82-7.22-47.03-4.16-13.69-9.47-27.41-17.82-39.06.15-.68,6.34-2.62,7.28-2.65,4.06-.14,4.06,3.81,8.42-2.9l34.36-12.29c.23,11.3-4.4,23.41-9.46,33.39-1.77,3.49-9.79,14.92-10.14,17.23-.67,4.45,3.87,2.18,5.93-.2,10.93-12.64,19.72-35.9,19.06-52.63,8.09-1.75,15.57-6.19,23.65-7.55,20.71,19.16,36.58,50.28,30.14,78.98-13.97,6.04-28.36,11.14-42.46,16.9-11.37,4.64-22.91,9.36-34.16,14.01,2.05-1.08.94-10.84.66-13.18-2.16-18.04-10.05-42.81-18.47-58.9-1.43-2.73-4.08-7.86-5.81-10.12-.78-1.02-1.07-1.51-2.54-1.24l-1,3.22c14.08,23.51,23.69,50.46,24.28,78.16.29,1.01,1.94,2.54,2.88,2.05Z"/><path class="cls-2" d="M75.76,159.13c-3.56-.15-10.46,7.2-12.64,7.53-1.19.18-1.49-.85-1.94-1.66-4.74-8.59-11.56-43.56-10.46-53.26.84-7.4,3.4-5.02,6.7-.63,9.43,12.57,13.64,33.2,18.34,48.02Z"/><path class="cls-1" d="M90.92,187.97c-.93.49-2.59-1.04-2.88-2.05-.59-27.7-10.2-54.65-24.28-78.16l1-3.22c1.48-.28,1.76.22,2.54,1.24,1.73,2.26,4.38,7.39,5.81,10.12,8.43,16.1,16.31,40.86,18.47,58.9.28,2.33,1.39,12.1-.66,13.18Z"/></svg>