<?xml version="1.0" encoding="UTF-8"?><svg id="Layer_1" xmlns="http://www.w3.org/2000/svg" viewBox="0 0 234 234"><defs><style>.cls-1{fill:#888;}.cls-2{fill:#d7d7d7;}</style></defs><path class="cls-2" d="M186,92c8,10,6,26-2,34-6,6-4,16-12,20,4,10-2,22-12,26-8,3-14-2-20,4-8,8-24,8-32,0-5-5-13-3-18-8-6,6-18,7-25,1-8-7-9-20-2-28-8-6-10-19-4-27,4-6,12-7,13-15,1-10,10-18,20-18,6,0,10,3,15-1,8-7,22-6,29,2,4,5,11,3,16,7,7-6,19-5,25,2,2,2,4-1,9,1Z"/><path class="cls-1" d="M170,100c7,9,5,22-3,29-5,5-3,13-10,17,3,9-2,19-10,22-7,3-12-1-17,4-7,7-20,7-27,0-4-4-11-2-15-7-5,5-15,6-21,1-7-6-8-17-2-24-7-5-8-16-3-23,3-5,10-6,11-13,1-9,9-15,17-15,5,0,9,2,13-1,7-6,19-5,25,2,3,4,9,2,13,6,6-5,16-4,21,2Z"/><circle class="cls-1" cx="42" cy="62" r="9"/><circle class="cls-1" cx="192" cy="58" r="7"/><circle class="cls-1" cx="204" cy="150" r="8"/><circle class="cls-1" cx="52" cy="182" r="6"/><circle class="cls-2" cx="70" cy="44" r="5"/><circle class="cls-2" cx="214" cy="96" r="5"/><circle class="cls-2" cx="150" cy="200" r="6"/><path class="cls-1" d="M62,74l-18-14c-2-1,0-4,2-3l20,11c3,2,0,8-4,6Z"/><path class="cls-1" d="M182,74l14-16c1-2,4,0,3,2l-11,18c-2,3-8,0-6-4Z"/></svg>