<?xml version="1.0" encoding="UTF-8"?><svg id="Layer_1" xmlns="http://www.w3.org/2000/svg" viewBox="0 0 234 234"><defs><style>.cls-1{fill:#888;}.cls-2{fill:#d7d7d7;}</style></defs><path class="cls-1" d="M52,164L156,52c6-6,16-7,22-1l6,6c6,6,6,15,0,21L76,186c-2,2-5,3-8,3l-20,3c-4,1-7-3-6-7l4-18c1-2,3-5,6-3Z"/><path class="cls-2" d="M162,58l14,14-96,102-16,3,3-15L162,58Z"/><path class="cls-1" d="M42,208c14-6,34-9,52-6,3,1,3,4,0,5-18,4-38,5-52,5-3,0-3-3,0-4Z"/><path class="cls-2" d="M116,204c10-3,24-3,34,0,2,1,2,3,0,4-10,2-24,2-34,0-2-1-2-3,0-4Z"/><circle class="cls-1" cx="180" cy="206" r="4"/></svg>