<?xml version="1.0" encoding="UTF-8"?><svg id="Layer_1" xmlns="http://www.w3.org/2000/svg" viewBox="0 0 234 234"><defs><style>.cls-1{fill:#888;}.cls-2{fill:#d7d7d7;}</style></defs><rect class="cls-2" x="88" y="30" width="58" height="130" rx="8" transform="rotate(18 117 95)"/><rect class="cls-1" x="96" y="42" width="42" height="106" rx="6" transform="rotate(18 117 95)"/><path class="cls-2" d="M76,170l54,18-8,22c-2,5-8,8-13,6l-32-10c-5-2-8-8-6-13l5-23Z"/><path class="cls-1" d="M70,196c20,2,40,8,56,16,3,2,1,5-2,5-18-2-40-8-56-16-3-2-1-5,2-5Z"/></svg>