<?xml version="1.0" encoding="UTF-8"?><svg id="Layer_1" xmlns="http://www.w3.org/2000/svg" viewBox="0 0 234 234"><defs><style>.cls-1{fill:#888;}.cls-2{fill:#d7d7d7;}</style></defs><path class="cls-2" d="M186,30c6,26-2,58-22,82-14,17-32,28-50,33l-8,8c-4-2-8-6-10-10l8-8c2-19,10-39,26-55,22-23,42-42,56-50Z"/><path class="cls-1" d="M184,32c-24,18-46,40-62,62-10,14-18,28-24,41-1,3-4,2-4-1,2-16,9-35,21-51,18-24,46-45,69-51Z"/><path class="cls-1" d="M96,153c4,4,8,8,10,10l-14,14c-2,2-4,2-5,0l-5,14c-1,2-4,2-4-1l1-16c-1-2,0-4,2-6l15-15Z"/><path class="cls-1" d="M64,196c-6,4-14,8-24,10-3,1-4-2-2-4,7-5,13-9,17-15l9,9Z"/><ellipse class="cls-1" cx="46" cy="206" rx="12" ry="9"/><circle class="cls-1" cx="70" cy="214" r="5"/><circle class="cls-2" cx="30" cy="190" r="4"/></svg>