<?xml version="1.0" encoding="UTF-8"?><svg id="Layer_1" xmlns="http://www.w3.org/2000/svg" viewBox="0 0 234 234"><defs><style>.cls-1{fill:#888;}.cls-2{fill:#d7d7d7;}</style></defs><path class="cls-2" d="M117,26c20,26,52,64,52,98,0,30-23,54-52,54s-52-24-52-54c0-34,32-72,52-98Z"/><path class="cls-1" d="M117,44c17,23,42,55,42,80,0,25-19,44-42,44s-42-19-42-44c0-25,25-57,42-80Z"/><path class="cls-2" d="M100,138c0,14,8,22,17,24-14,3-27-6-29-20-1-8,3-16,8-20,0,6,4,12,4,16Z"/><circle class="cls-1" cx="52" cy="196" r="9"/><circle class="cls-2" cx="76" cy="208" r="6"/><circle class="cls-1" cx="180" cy="200" r="7"/><circle class="cls-2" cx="158" cy="212" r="5"/></svg>