<?xml version="1.0" encoding="UTF-8"?><svg id="Layer_1" xmlns="http://www.w3.org/2000/svg" viewBox="0 0 234 234"><defs><style>.cls-1{fill:#8b8b8b;}.cls-2{fill:#d7d7d7;}.cls-3{fill:#8a8a8a;}.cls-4{fill:#d8d8d8;}.cls-5{fill:#888;}.cls-6{fill:#d4d4d4;}</style></defs><path d="M206.64,60.21c.17.13.38.2.54.34,1.78,2.72,2.83,4.85,2.36,8.21-.09.19-.24.35-.34.54-.7,1.36-1.8,3.05-2.69,4.31-.12.17-.21.37-.34.54l-1.55,1.28c-.14.16-.2.38-.34.54l-1.55,1.28c-.15.14-.19.4-.34.54-1.53.24-2.18,1.55-3.1,2.56-.14.15-.2.39-.34.54-1.54.24-2.18,1.55-3.1,2.56-.14.15-.19.39-.34.54-4.76,3.29-9.28,7.12-13.59,10.98-.15.14-.19.4-.34.54-1.71.2-2.8,1.7-3.97,2.76-.15.14-.18.41-.34.54-2.91,1.22-5.47,3.6-7.94,5.52-.16.12-.18.42-.34.54-2.86,1.02-5.21,3.21-7.61,4.98-.16.12-.18.42-.34.54l-36.34,22.22c3.69,5.56,7.45,11.7,10.45,17.64,1.17,2.31,2.54,4.37,2.61,7-.16.41-.71,1.28-1.01,1.62-3.76,1.51-6.88,2.93-11.04,2.09-.61-.29-1.67-.92-2.15-1.35-1.25-3.03-4.11-10.89-6.79-12.54-2.17-1.34-4.65.83-7.13,1.16-2,.27-3.85-.24-5.81-.2-.59-.3-1.74-.94-2.15-1.35-.17-.17-.44-2.1-.93-2.08-11.75,6.35-23.39,13.3-35.5,18.95-11.21,5.23-24.97,11-36.55,15.35-3.51,1.32-6.98,2.16-10.55,3.23-.16-.05-.38-.23-.54-.34-.92-3.27-4.25-5.59-3.98-9.22.12-.17.2-.39.34-.54,1.56-.21,2.16-1.6,3.1-2.56.14-.15.19-.39.34-.54l1.21-.74c.15-.15.19-.39.34-.54l1.55-1.28c.14-.15.19-.39.34-.54l1.55-1.28c.14-.15.19-.39.34-.54l1.88-1.82c.14-.15.19-.39.34-.54l1.88-1.82c.14-.15.19-.39.34-.54l1.55-1.28c.15-.15.19-.39.34-.54,2.13-1.04,3.7-3.25,5.32-4.92.14-.15.19-.39.34-.54,2.02-.65,3.24-2.42,4.64-3.84.15-.15.19-.39.34-.54,2.93-1.22,4.81-3.98,6.86-6.2.14-.15.2-.38.34-.54l1.88-1.82c.14-.16.19-.39.34-.54,1.29-.35,2.17-1.64,3.1-2.56.15-.15.19-.4.34-.54,7.3-4.74,14.43-9.88,21.4-15.09.16-.12.18-.42.34-.54,1.4-.37,7.69-3.95,7.6-4.98-.33-.25-.74-.42-1.07-.67-.18-.13-.42-.2-.54-.34l-.74-1.21c-.13-.15-.41-.18-.54-.34l-1.48-2.42c-.12-.16-.43-.18-.54-.34l-7.66-14.13c-.37-1.6,1.45-2.86,2.54-4.04.14-.16.19-.4.34-.54,5.6-2.84,11.11-5.75,16.29-9.3.16-.11.18-.43.34-.54,3.31-.61,5.42-4.73,8.41-1.48.15.15.41.19.54.34l11.02,18.8c.7.24,10.34-5.01,10.56-5.59.34-.89-1.4-5.84-2.24-6.39-1.56.78-3.02,2.52-5,1.39-.15-.16-.46-.2-.54-.34-.67-4.98,3.63-6.08,7.2-7.72,3.15-1.44,10.36-5.36,11.24-.23-.08.27-.81,1.45-1.01,1.62-.52.44-4.52,1.44-4.79,1.88-.18.28,1.2,6.47,1.86,6.42,18.07-8.98,36.23-17.94,54.97-25.46,5.48-2.2,16.85-7.89,22.34-6.03.19.06.34.25.54.34.75.32,1.99,1.16,2.69,1.68ZM204.56,67.15c0-.19.61-.55.33-1.33-1.33-3.77-4.74-3.16-7.67-2.51-8,1.77-19.37,7.5-27.2,10.92-5.25,2.3-42.76,19.16-43.73,21.39-.27.61,1.63,11.02-2.74,6.16-1.42-1.58.54-4.97-3.66-3.16-1.52.65-10.68,5.63-11.46,6.39-1.71,1.65-1.37,10.5-5.18,7.48-1.46-1.16.24-3.97-1.66-3.32-.88.3-7.08,4.18-7,4.6l1.64,2.15c-2.03,1.19-5.6.26-7.29.87-3.6,1.29-15.87,10.48-19.85,13.28-8.51,6-16.71,12.46-24.91,18.85l4.34,6.61,3.87,9c44.39-23.51,90.42-45,130.08-76.37,3.08-2.44,22.21-18.12,22.58-19.96.08-.39-.47-.87-.47-1.07ZM99.34,90.56l-4.97-7.61-19.51,12.55,4.76,7.44,19.72-12.38ZM100.71,94.45l-18.89,11.08c-.9,1.05,3.33,6.36,4.29,6.63,1.33.38,16.22-9.93,19.15-10.82.27-.51-3.53-6.95-4.54-6.89ZM104.96,142.72c3.53,2.36,8.56-.83,11.71-.23,2.34.44,3.57,2.83,4.75,2.72.26-.02,3.91-3,3.91-3.26,0-.95-3.57-6.32-4.13-7.8l-16.25,8.56ZM126.9,145.95c-2.38,4.06-3.78,2.8-1.64,7.06,1.85,3.68,2.66,5.01,7.06,3.39.96-.99-4.85-10.63-5.42-10.45ZM48.88,165.37c-1.78-1.82-5.83-13.26-8.3-13.13l-16.87,13.86c1.19,1.11,2.8,2.25,3.79,3.51,1.19,1.5,1.74,4.8,2.96,4.89,1.03.07,18.5-8.11,18.42-9.13ZM21.68,170.17c-1.18-.3-5.26,2.05-5.59,3.44-.15.62,3.12,5.47,3.49,5.59.68.23,5.76-1.97,6.08-3.14.36-1.3-2.54-5.53-3.98-5.9Z"/><path class="cls-1" d="M204.56,67.15c0,.21.55.68.47,1.07-.36,1.83-19.5,17.52-22.58,19.96-39.66,31.36-85.7,52.86-130.08,76.37l-3.87-9-4.34-6.61c8.2-6.4,16.4-12.86,24.91-18.85,3.98-2.81,16.25-11.99,19.85-13.28,1.69-.6,5.26.32,7.29-.87l-1.64-2.15c-.08-.41,6.12-4.3,7-4.6,1.91-.64.2,2.16,1.66,3.32,3.8,3.03,3.47-5.82,5.18-7.48.78-.76,9.94-5.74,11.46-6.39,4.21-1.81,2.24,1.58,3.66,3.16,4.37,4.86,2.47-5.55,2.74-6.16.98-2.23,38.48-19.1,43.73-21.39,7.83-3.43,19.2-9.15,27.2-10.92-37.19,20.42-74.24,41.6-109.64,65.06-4.85,3.21-35.74,23.8-36.67,26.5-.06.18.78,3.37,1.17,3.55,1.3.59,3.6-.43,4.94-.77,47.09-30.63,98.58-56.99,145.07-88.29.95-.64,1.95-1.09,2.48-2.21Z"/><path class="cls-4" d="M197.22,63.32c2.93-.65,6.34-1.27,7.67,2.51.27.78-.34,1.14-.33,1.33-.53,1.12-1.53,1.57-2.48,2.21-46.49,31.3-97.99,57.66-145.07,88.29-1.34.34-3.64,1.36-4.94.77-.39-.18-1.23-3.37-1.17-3.55.93-2.7,31.82-23.28,36.67-26.5,35.41-23.45,72.46-44.63,109.64-65.06Z"/><path class="cls-4" d="M48.88,165.37c.09,1.03-17.39,9.2-18.42,9.13-1.22-.08-1.77-3.39-2.96-4.89-.99-1.25-2.6-2.39-3.79-3.51l16.87-13.86c2.48-.14,6.52,11.31,8.3,13.13Z"/><polygon class="cls-2" points="99.34 90.56 79.62 102.94 74.86 95.5 94.37 82.95 99.34 90.56"/><path class="cls-3" d="M100.71,94.45c1.02-.06,4.81,6.38,4.54,6.89-2.93.89-17.82,11.2-19.15,10.82-.96-.27-5.19-5.58-4.29-6.63l18.89-11.08Z"/><path class="cls-3" d="M104.96,142.72l16.25-8.56c.56,1.48,4.13,6.85,4.13,7.8,0,.25-3.65,3.23-3.91,3.26-1.18.11-2.41-2.28-4.75-2.72-3.15-.6-8.18,2.59-11.71.23Z"/><path class="cls-6" d="M21.68,170.17c1.44.36,4.34,4.6,3.98,5.9-.32,1.17-5.41,3.36-6.08,3.14-.37-.12-3.64-4.97-3.49-5.59.33-1.39,4.41-3.74,5.59-3.44Z"/><path class="cls-5" d="M126.9,145.95c.57-.18,6.38,9.46,5.42,10.45-4.4,1.62-5.21.29-7.06-3.39-2.14-4.25-.74-3,1.64-7.06Z"/></svg>