<?xml version="1.0" encoding="UTF-8"?><svg id="Layer_1" xmlns="http://www.w3.org/2000/svg" viewBox="0 0 227 226"><defs><style>.cls-1{fill:#ffa1a3;}</style></defs><path d="M136.75,52.49c.27.02.54-.02.8,0l2.4.8c.27.05.56-.06.8,0,1.04,1.23,2.6,1.23,4.01,1.6.26.07.56-.07.8,0,14.17,7.8,28.23,19.69,33.66,35.27.1,1.22.09,2.78,0,4.01-3.01,14.41-13.33,24.75-23.62,34.49-16.26,15.38-35.05,29.98-54.12,41.66-.22.1-.58-.1-.8,0l-3.21,1.6c-.24.08-.55-.07-.8,0l-1.6.8c-.25.06-.54-.05-.8,0l-2.4.8c-.26.02-.54-.02-.8,0-3.07.22-7.36.23-10.42,0-.27-.02-.54.03-.8,0l-2.4-.8c-.26-.06-.56.07-.8,0-14.02-5.98-22.99-17.07-28.05-31.26-.06-.25.05-.54,0-.8l-.8-3.21c-.05-.53.03-1.07,0-1.6-.1-2.01-.13-4.42,0-6.41.04-.53-.05-1.08,0-1.6,1.36-2.05,1.62-4.89,2.4-7.21.08-.24-.09-.57,0-.8,8.98-15.91,25.61-24.31,38.48-36.46,10.5-9.91,17.75-22.81,31.25-29.27.23-.08.55.08.8,0l1.6-.8c.25-.06.54.05.8,0,1.04-.19,2.28-.79,2.4-.8.26-.03.54.02.8,0,3.01-.25,7.39-.22,10.42,0ZM139.15,57.31c-4.03-.28-7.23-1.2-11.41-.6-15.87,2.27-28.92,23.37-40.67,33.86-19.54,17.44-48.17,30.42-29.2,62.04,2.96,4.94,11.54,11.99,16.87,14.39,14.72,6.64,27.22-1.49,39.02-9.66,13.9-9.63,57.8-44.82,60.47-60.56,2.1-12.37-10.85-24.59-20.71-30.2-24.89-14.17-39.64,8.52-55.23,23.19-18.49,17.41-55.48,36.94-28.48,65.33,2.83,2.97,9.03,6.37,11.1,8.77,2.37,2.75-.99,2.89-3.5,2.07-5.23-1.71-14.89-13.76-17.2-18.87-12.51-27.65,15.54-40.64,32.47-56.5,13.03-12.2,20.81-26.2,39.22-31.31,2.21-.61,6.12.26,7.25-1.96Z"/><path class="cls-1" d="M139.15,57.31c-1.13,2.21-5.04,1.34-7.25,1.96-18.42,5.1-26.19,19.11-39.22,31.31-16.94,15.86-44.98,28.85-32.47,56.5,2.31,5.11,11.97,17.16,17.2,18.87,2.5.82,5.87.68,3.5-2.07-2.06-2.39-8.27-5.79-11.1-8.77-26.99-28.39,9.99-47.93,28.48-65.33,15.59-14.67,30.34-37.36,55.23-23.19,9.87,5.62,22.82,17.84,20.71,30.2-2.68,15.73-46.57,50.93-60.47,60.56-11.8,8.18-24.31,16.3-39.02,9.66-5.33-2.4-13.91-9.45-16.87-14.39-18.97-31.63,9.67-44.61,29.2-62.04,11.75-10.49,24.8-31.59,40.67-33.86,4.18-.6,7.38.32,11.41.6Z"/></svg>