<?xml version="1.0" encoding="UTF-8"?><svg id="Layer_1" xmlns="http://www.w3.org/2000/svg" viewBox="0 0 230 211"><defs><style>.cls-1{fill:#fedd93;}.cls-2{fill:#423e0d;}.cls-3{fill:#ef5862;}.cls-4{fill:#ffec06;}.cls-5{fill:#8689a1;}.cls-6{fill:#8688a0;}</style></defs><path d="M142.3,16.53c.21,0,.42-.01.63,0,.98.96,2.54.91,3.81,1.27.2.06.45-.06.63,0,4.4,3.17,8.9,5.72,10.16,11.43,0,.21,0,.42,0,.63-1.19,1.09-.43,3.1-.78,4.62-.52,2.23-2.19,5.53-3.03,8.08-.06.19.06.44,0,.63-2.6,4.32-3.99,9.27-5.71,13.96-.07.19.07.45,0,.63l-1.27,2.54c-.07.19.07.45,0,.63l-1.27,2.54c-.07.18.07.45,0,.63l-1.27,2.54c-.07.18.07.45,0,.63-3.43,6.14-5.74,13.08-8.25,19.68-.07.18.07.45,0,.63l-1.27,2.54c-.07.19.07.45,0,.63-2.55,3.94-4.06,8.9-5.71,13.33-.07.19.07.45,0,.63l-1.27,2.54c-.07.19.07.45,0,.63-2.15,2.92-3.21,6.78-4.44,10.16-.07.19.07.45,0,.63-2.15,2.92-3.21,6.78-4.44,10.16-.07.19.07.45,0,.63-2.13,2.92-3.23,6.78-4.44,10.16-.07.19.07.45,0,.63-1.72,1.87-2.35,4.65-3.17,6.98-.07.19.07.45,0,.63l-1.27,2.54c-.07.19.07.45,0,.63-2.18,2.92-3.17,6.79-4.44,10.16-.07.19.07.45,0,.63-2.1,2.12-2.21,5.57-3.8,7.94-1.9,2.82-6.72,6.34-9.22,9.19-2.32,2.65-10.17,13.58-12.02,14.64-4.79,2.74-5.15-1.65-6.06-5.11-.05-.84.02-1.7,0-2.54-.04-2.01.55-4.87-.63-6.35,0-.63,0-1.27,0-1.9,0-1.79.51-4.46-.63-5.71,0-.85,0-1.69,0-2.54-.02-4.26.19-8.5-.63-12.7.02-.42-.04-.85,0-1.27,1.03-.54.6-2.16.63-3.17.04-.2-.04-.43,0-.63,1.16-1.38,1.43-3.39,1.9-5.08.06-.2-.06-.44,0-.63,2.65-4.8,4.45-10.11,6.35-15.23.07-.19-.07-.45,0-.63,2.15-2.92,3.2-6.78,4.44-10.16.07-.19-.07-.45,0-.63,3.16-5.53,5.35-11.8,7.62-17.77.07-.18-.07-.45,0-.63,2.56-3.94,4.05-8.9,5.71-13.33.07-.19-.07-.45,0-.63l1.27-2.54c.07-.19-.07-.45,0-.63l1.27-2.54c.07-.19-.07-.45,0-.63l1.27-2.54c.07-.18-.07-.45,0-.63,1.4-1.48,1.9-3.83,2.54-5.71.06-.19-.07-.45,0-.63l1.27-2.54c.07-.19-.07-.45,0-.63,1.72-1.87,2.34-4.65,3.17-6.98.07-.19-.07-.45,0-.63,2.48-3.84,4.01-8.47,5.71-12.7.07-.18-.07-.45,0-.63,4.37-7.2,6.87-15.45,10.79-22.85.09-.17-.09-.47,0-.63,3.45-6.33,9.18-7.23,15.87-6.98ZM130.24,26.04c8.14,1.35,15.84,4.42,21.9,10.15,9.31-12.22-17.57-22.14-21.9-10.15ZM150.46,39.48c-.67-1.17-10.82-6.64-12.75-7.26-2.74-.88-11.53-3.36-10.33,1.45,5.88-.59,10.98,1.46,15.88,4.42,1.66,1,4.56,3.94,5.72,4.44s1.83-2.45,1.48-3.05ZM145.48,50.8c5.36-3.48-2.63-8.71-5.92-10.27-2.57-1.22-14.29-4.25-15.66-1.46-.62,1.26,1.34.97,2.03,1.13,7.2,1.67,15.89,3.29,19.56,10.61ZM125.79,53.34c-10.63,33.36-27.22,65.89-39.04,98.98l2.23,7.66c.56.52,4.92-2.31,5.22-3.35l40.99-99.93,2.03-1.46-39.25,100.73c.34.81,2.46,4.79,3.4,3.38l43.47-105.07c-2.58-.43-2.99-2.69-4.41-3.83-5.07-4.04-12.71-6.3-19.13-4.98l-43.73,107.51,6.99-2.99c9.93-24.85,19.81-49.75,30.16-74.42,3.32-7.91,6.45-15.96,10.45-23.51l.63,1.27ZM96.59,160.62c-.52-.41-8.18,7.89-11.27,1.44-1.09-2.27-.49-5.3-2.36-7.14-4.08,2.6-5.63,1.23-6.06,6.63-.4,5.01,1.11,9.93.66,14.94,4.25-3.8,9.69-2.38,11.1,3.17,2.23-2.54,10.32-11.06,9.71-14.1-.24-1.19-1.98-3.22-1.78-4.94Z"/><path class="cls-4" d="M125.16,52.07c-4,7.55-7.13,15.59-10.45,23.51-10.35,24.68-20.23,49.58-30.16,74.42l-6.99,2.99,43.73-107.51c6.42-1.32,14.07.93,19.13,4.98,1.42,1.14,1.83,3.4,4.41,3.83l-43.47,105.07c-.94,1.41-3.06-2.57-3.4-3.38l39.25-100.73-2.03,1.46-40.99,99.93c-.3,1.04-4.65,3.86-5.22,3.35l-2.23-7.66c11.82-33.09,28.41-65.62,39.04-98.98.46-1.46,1.94-3.27,1.9-5.07-1.23-1.47-2.33,3.42-2.54,3.8Z"/><path class="cls-1" d="M96.59,160.62c-.2,1.72,1.55,3.75,1.78,4.94.61,3.04-7.49,11.56-9.71,14.1-1.41-5.55-6.85-6.97-11.1-3.17.44-5.01-1.06-9.93-.66-14.94.43-5.4,1.98-4.03,6.06-6.63,1.88,1.84,1.27,4.87,2.36,7.14,3.09,6.45,10.75-1.85,11.27-1.44Z"/><path class="cls-3" d="M130.24,26.04c4.32-11.98,31.21-2.07,21.9,10.15-6.06-5.73-13.76-8.8-21.9-10.15Z"/><path class="cls-5" d="M145.48,50.8c-3.67-7.32-12.36-8.94-19.56-10.61-.68-.16-2.65.14-2.03-1.13,1.37-2.79,13.09.25,15.66,1.46,3.3,1.56,11.28,6.79,5.92,10.27Z"/><path class="cls-6" d="M150.46,39.48c.35.61-.28,3.58-1.48,3.05s-4.06-3.44-5.72-4.44c-4.9-2.97-10.01-5.02-15.88-4.42-1.2-4.81,7.59-2.33,10.33-1.45,1.93.62,12.08,6.09,12.75,7.26Z"/><path class="cls-2" d="M125.16,52.07c.21-.39,1.31-5.28,2.54-3.8.04,1.81-1.44,3.62-1.9,5.07l-.63-1.27Z"/></svg>