<?xml version="1.0" encoding="UTF-8"?><svg id="Layer_1" xmlns="http://www.w3.org/2000/svg" viewBox="0 0 234 234"><defs><style>.cls-1{fill:#888;}.cls-2{fill:#d7d7d7;}</style></defs><ellipse class="cls-1" cx="117" cy="120" rx="26" ry="22"/><ellipse class="cls-1" cx="68" cy="80" rx="13" ry="10" transform="rotate(-38 68 80)"/><ellipse class="cls-1" cx="170" cy="76" rx="14" ry="10" transform="rotate(32 170 76)"/><ellipse class="cls-1" cx="182" cy="152" rx="12" ry="8" transform="rotate(20 182 152)"/><ellipse class="cls-1" cx="62" cy="160" rx="11" ry="8" transform="rotate(-24 62 160)"/><ellipse class="cls-2" cx="110" cy="52" rx="9" ry="7" transform="rotate(80 110 52)"/><ellipse class="cls-2" cx="42" cy="118" rx="9" ry="6"/><ellipse class="cls-2" cx="196" cy="112" rx="9" ry="6"/><ellipse class="cls-2" cx="124" cy="188" rx="9" ry="7" transform="rotate(100 124 188)"/><circle class="cls-1" cx="90" cy="40" r="5"/><circle class="cls-1" cx="150" cy="42" r="4"/><circle class="cls-1" cx="30" cy="86" r="4"/><circle class="cls-1" cx="208" cy="82" r="4"/><circle class="cls-1" cx="212" cy="180" r="5"/><circle class="cls-1" cx="90" cy="196" r="4"/><circle class="cls-1" cx="160" cy="196" r="5"/><circle class="cls-1" cx="34" cy="190" r="4"/><circle class="cls-2" cx="60" cy="46" r="3"/><circle class="cls-2" cx="180" cy="46" r="3"/><circle class="cls-2" cx="24" cy="150" r="3"/><circle class="cls-2" cx="212" cy="140" r="3"/><circle class="cls-2" cx="117" cy="214" r="3"/><path class="cls-1" d="M96,98l-16-12c-2-2,1-5,3-3l15,13c2,2-1,4-2,2Z"/><path class="cls-1" d="M140,100l14-14c2-2,5,1,3,3l-15,13c-2,2-4-1-2-2Z"/></svg>