<?xml version="1.0" encoding="UTF-8"?><svg id="Layer_1" xmlns="http://www.w3.org/2000/svg" viewBox="0 0 230 244"><defs><style>.cls-1{fill:#5b2eff;}.cls-2{fill:#28262c;}.cls-3{fill:#675938;}.cls-4{fill:#3f3930;}.cls-5{fill:#b38b1a;}.cls-6{fill:#826c35;}.cls-7{fill:#9c7d2b;}.cls-8{fill:#453d31;}.cls-9{fill:#25232b;}.cls-10{fill:#625436;}</style></defs><path class="cls-9" d="M166.32,22.21c.01.24,0,.48,0,.72.03.95.05,1.94,0,2.88-.01.24.03.49,0,.72-.73.23-.62.86-.72,1.44-.04.23.05.49,0,.72-1.55,1.22-1.64,3.32-2.16,5.04-.07.22.07.5,0,.72-1.83,1.65-2.2,4.25-2.88,6.48-.07.22.06.5,0,.72-1.81,1.38-1.67,3.83-2.16,5.76-.06.23.06.5,0,.72l-.72,1.44c-.06.22.06.5,0,.72-1.52,1.22-1.68,3.31-2.16,5.04-.06.22.06.5,0,.72-1.52,1.22-1.68,3.31-2.16,5.04-.06.22.06.5,0,.72-1.52,1.22-1.68,3.31-2.16,5.04-.06.22.06.5,0,.72-1.52,1.22-1.68,3.31-2.16,5.04-.06.22.06.5,0,.72-1.52,1.22-1.68,3.31-2.16,5.04-.06.22.06.5,0,.72-1.52,1.22-1.68,3.31-2.16,5.04-.06.22.06.5,0,.72-1.73,1.77-2.18,4.82-2.88,7.2-.06.22.06.5,0,.72-1.52,1.22-1.68,3.31-2.16,5.04-.06.22.06.5,0,.72-1.52,1.22-1.68,3.31-2.16,5.04-.06.22.06.5,0,.72-1.53,1.22-1.67,3.31-2.16,5.04-.06.22.07.5,0,.72-2.75,4.33-4.04,9.63-5.76,14.41-.08.21.08.51,0,.72-4.78,10.45-9.18,20.31-16.28,29.46-2.48,3.19-12.02,12.56-12.53,15.2-.08.42.04.97,0,1.44-1.34,2.15-.69,5.91-.72,8.64,0,.72.01,1.44,0,2.16-1.25.8-.65,2.96-.72,4.32-.03.48.04.97,0,1.44-1.11.94-1.11,2.34-1.44,3.6-.06.23.07.51,0,.72-6.44,12.54-14.34,24.88-28.09,30.25-.62.05-1.6.1-2.16,0-3.64-4.17,1.32-8.4,2.88-12.97.07-.21-.06-.49,0-.72,1.45-.85,1.22-2.23,1.44-3.6.04-.23-.04-.49,0-.72l.72-2.88c.03-.24-.03-.48,0-.72,1.21-.78.7-2.96.72-4.32,0-.48,0-.96,0-1.44,1.29-1,.66-3.45.72-5.04,0-.24-.02-.48,0-.72,1.17-.62.68-2.45.72-3.6.04-.23-.04-.49,0-.72l.72-2.16c.06-.22-.07-.5,0-.72,3.1-7.44,7.3-13.9,14.41-18.01.22-.08.55.09.72,0,1.29-.68.71-6.83.72-8.64,0-.48,0-.96,0-1.44,1.23-.79.68-2.96.72-4.32,0-.24-.02-.48,0-.72,1.17-.62.68-2.45.72-3.6.06-.46-.06-.98,0-1.44l.72-2.88c.04-.23-.04-.49,0-.72l.72-2.88c.05-.23-.05-.49,0-.72l.72-2.16c.06-.23-.06-.49,0-.72,1.37-1.14,1.11-2.84,1.44-4.32.05-.23-.06-.49,0-.72l.72-1.44c.06-.22-.06-.5,0-.72l.72-1.44c.07-.22-.07-.5,0-.72l.72-1.44c.07-.21-.07-.51,0-.72,1.73-1.69,1.98-4.39,2.88-6.48.09-.2-.09-.52,0-.72,10.75-24.12,31.88-50.73,46.84-73.1,2.96-4.43,10.31-18.29,14.41-20.2,1.32-.61,2.42-.4,3.58.37ZM94.36,165.47c.33.28,3.15.22,3.86.06,2.33-.49,10.66-10.81,12.59-13.34,2.33-3.05,11.13-15.37,10.68-18.57-.55-3.94-11.04-8.15-14.73-8.36-1.04-.06-5.42.39-5.87.79-1.63,1.45-6.79,31.13-7.36,35.49,0,.51.67,3.78.83,3.91ZM75.55,204.45c-.36,1.62-2.6,4.22-2.15,6.48,1.62-1.09,2.18-4.04,2.87-5.76.77-1.9,1.94-3.65,2.16-5.76l.72,2.16c-.66,2.58-1.12,5.47-2.16,7.92-.77,1.82-2.64,4.28.72.72,5.16-5.47,8.96-15.1,10.81-22.33l.72.72c-1.43,5.95-2.96,11.75-5.76,17.29-.51,1-1.51,2.46-2.16,3.6-1.49,2.6-2.01,3.57.72.72.75-.78,1.43-2.02,2.16-2.88,5.29-6.27,8.93-11.9,11.32-20.01,1.46-4.95,5-16.21-1.07-18.7-8.89-3.64-14.92,12.87-16.38,19.25-1.25,5.46-1.31,11.18-2.51,16.58Z"/><path class="cls-1" d="M94.36,165.47c-.15-.13-.83-3.4-.83-3.91.58-4.37,5.73-34.04,7.36-35.49.45-.4,4.84-.85,5.87-.79,3.69.2,14.18,4.42,14.73,8.36.44,3.2-8.35,15.52-10.68,18.57-1.93,2.53-10.27,12.85-12.59,13.34-.72.15-3.53.22-3.86-.06Z"/><path class="cls-5" d="M84.2,207.34l-.72-1.44c2.8-5.54,4.34-11.33,5.76-17.29.47-1.97,1.14-3.5,1.44-5.76.23-1.74,1.59-4.28-.71-5.04-.18,1.36.23,3.05,0,4.32-.28,1.51-1.01,4.09-1.44,5.76-1.84,7.23-5.64,16.86-10.81,22.33l-.72-.72c1.04-2.45,1.5-5.34,2.16-7.92,1.22-4.74,2.81-9.38,2.15-14.4l-2.87,12.24c-.22,2.11-1.4,3.86-2.16,5.76l-.72-.72c1.21-5.4,1.26-11.12,2.51-16.58,1.46-6.39,7.49-22.9,16.38-19.25,6.07,2.49,2.53,13.75,1.07,18.7-2.39,8.11-6.03,13.74-11.32,20.01Z"/><path class="cls-4" d="M79.16,201.57l-.72-2.16,2.87-12.24c.66,5.02-.93,9.66-2.15,14.4Z"/><path class="cls-8" d="M90.68,182.84c-.3,2.27-.97,3.79-1.44,5.76l-.72-.72c.43-1.67,1.16-4.25,1.44-5.76l.72.72Z"/><path class="cls-6" d="M76.27,205.17c-.69,1.72-1.25,4.66-2.87,5.76-.45-2.26,1.79-4.86,2.15-6.48l.72.72Z"/><path class="cls-7" d="M84.2,207.34c-.73.86-1.41,2.1-2.16,2.88l-.72-.72c.65-1.14,1.65-2.6,2.16-3.6l.72,1.44Z"/><path class="cls-10" d="M77.71,210.22c-3.36,3.56-1.49,1.1-.72-.72l.72.72Z"/><path class="cls-3" d="M82.04,210.22c-2.73,2.85-2.21,1.88-.72-.72l.72.72Z"/><path class="cls-2" d="M90.68,182.84l-.72-.72c.23-1.27-.17-2.97,0-4.32,2.3.77.95,3.3.71,5.04Z"/></svg>