<?xml version="1.0" encoding="UTF-8"?><svg id="Layer_1" xmlns="http://www.w3.org/2000/svg" viewBox="0 0 172.58 172.14"><defs><style>.cls-1{fill:#010101;}.cls-2{fill:#f0eecc;}.cls-3{fill:#020202;}.cls-4{fill:#ffec06;}</style></defs><path d="M165.1,63.87c4.28-.86,6.95,3.76,7.32,7.36,1.72,17.01-11.11,26.62-12.47,43.2-.2,2.49.64,12.16-.68,13.24-2.82,2.3-6.62-5.5-7.38-7.59-5.89-16.19,2.64-25.54,6.85-39.97,1.09-3.73,2.24-15.41,6.36-16.24Z"/><path class="cls-2" d="M156.1,120.43c-.77-.22-1.19-1.91-1.44-2.63-4.76-13.34,3.18-23.81,6.86-35.88.68-2.24,2.94-14.07,3.7-14.55,2.65-1.63,4.14,3.36,4.32,5.3.91,9.58-5.25,17.14-8.72,25.35-2.97,7.02-4.92,14.74-4.72,22.4Z"/><path d="M35.99,16.84c2.88-.38,1.58,1.51,2.29,3.25.57,1.41,3.17,4.66,4.15,6.41,4.05,7.3,7.78,14.79,12.2,21.88,6.37,10.21,13.46,17.72,18.52,29,2.25,5.02,3.78,10.57,6.07,15.53,6.19,13.39,23.23,26.21,33.94,36.62,7.34,7.14,14.25,15.66,22.06,22.09.56.46,1.39.48,1.96.93-.32,4.58-4.09,6.67-7.64,8.75-35.76,20.96-77.67,9.56-106.41-17.6C-6.46,115.76-6.18,68.96,15.55,36.28c3.41-5.12,14.37-18.64,20.43-19.44Z"/><path class="cls-4" d="M46.18,133.88c-.69.72.22.83.61,1.07,6.54,4.1,16.49,6.01,24.11,6.59,12.59.96,26.06.38,37.34-5.85,1.05-.58,2.86-2.51,3.84-2.26l20.98,20.36c.2.8-2.66,2.35-3.4,2.83-32.8,21.67-74.65,10.89-102.43-13.65C-1.96,117.19-3.43,75.48,15.56,43.01c4.81-8.23,11.3-16.58,19.35-21.82.87.07,3.78,5.34,4.46,6.46,5.05,8.32,9.1,17.23,14.48,25.36,3.98,6.01,8.95,11.41,12.58,17.66,5.49,9.47,7.82,20.52,13.64,29.56,3.62,5.63,8.48,9.97,13.15,14.68-10.43,6.1-21.56,12.29-33.22,15.73-2.13.63-13.32,2.73-13.81,3.24Z"/><path d="M52.28,101.09c-.69.55-1.65.66-2.5.67-14.63.11-36-28.1-25.19-40.59,7.69-8.87,19.3,7.91,22.94,14,3.29,5.51,11.18,20.82,4.75,25.92Z"/><path d="M80.16.09c16.65-.98,40.82,5.76,51.92,18.83,3.65,4.3,6.01,9.63,9.42,14.1,4.39,5.77,12.27,11.16,14.83,17.81,7.43,19.27-12.57,39.69-10.79,58.79,1.01,10.76,11.56,20.13,7.76,30.82-2.09,5.87-9.46,16.05-16.43,10.97-3.22-2.35-9.52-12.12-12.93-15.87-7.08-7.78-14.14-12.79-22.1-19.18-13.84-11.11-25.04-41.04-34.83-56.85-8.45-13.63-18.27-26.41-25.21-41.03-.55-1.08-2.39-.46-2.78-1.55-.77-2.15.96-3.53,2.38-4.7C50.04,5.12,69.08.74,80.16.09Z"/><path class="cls-2" d="M150.82,134.35c-3.29-1.67-13.5-20.18-14.7-20.59-1.88-.63-2.33.73-1.87,2.36,1.05,3.75,11.17,17.49,14.16,20.89,1.8,2.05,3.14.89,1.48,4.8-.55,1.3-.71,2.59-2.56,2.07-1-.28-11.91-11.9-13.29-13.62-1.12-1.4-2.25-2.92-3.28-4.4-1.24-1.77-1.81-5.01-4.41-4.47-1.09,1.09,2.67,6.66,3.45,7.83,1.67,2.49,3.95,5.24,5.9,7.54,1.18,1.39,8.66,8.82,8.83,9.44.52,1.9-4.01,3.38-5.98,2.59-2.46-.99-8.08-9.69-10.3-12.26-6.57-7.63-14.04-14.51-21.63-21.11-.48-.63.19-5.72.51-6.66.29-.84,3.35.19,2.04-4.04-1.53-4.91-17.53-24.31-21.95-27.49-5-3.6-6.11,1.41-6.72,1.43-1.1.03-7.16-14.04-8.32-16.15-4.35-7.93-10.34-14.66-15.16-22.28-4.33-6.84-7.55-14.59-11.89-21.23-.66-1-2.91-2.46-2.25-3.62.12-.2,3.37-2.24,3.93-2.55C69.06.55,98.93,1.07,120.73,13.96c11.3,6.69,12.55,13.8,20.03,23.17,4.32,5.42,12.26,10.7,13.3,17.9,3.03,20.91-15.83,37.58-11.26,57.82,1.72,7.62,7.15,13.69,8.02,21.5Z"/><path d="M95.02,35.57c5.75-1.1,9.27,6.76,11.25,11.1,2.72,5.96,8.25,20.47,4.45,26.22-5.14,7.77-13.84-5.31-15.99-9.89-2.66-5.65-9.52-25.55.29-27.43Z"/><path class="cls-1" d="M145.43,51.92c.89.86-.15,2.81-.49,3.84-1.8,5.34-5.97,15.21-8.9,19.89-1.38,2.2-3.66,5.12-6.52,3.45-2.07-1.21-5.86-10.4-4.4-12.45.38-.53,2.14-.68,2.61-.38.53.34,1.87,8.09,3.66,9.04.44,0,2.67-3.86,3.06-4.61,2.75-5.23,4.99-13.28,8.02-17.9.73-1.12,1.8-2.02,2.97-.88Z"/><path class="cls-3" d="M109.4,24.02c3.56-.9,9.61,12.8,5.57,13.8-2.37.59-2.39-3.77-2.93-5.09-.78-1.9-6-7.87-2.64-8.72Z"/></svg>